<svg width="43.454590" height="11.503906" viewBox="0 0 43.4546 11.5039" fill="none" xmlns="http://www.w3.org/2000/svg" xmlns:xlink="http://www.w3.org/1999/xlink">
	<desc>
			Created with Pixso.
	</desc>
	<defs/>
	<path id="LOGO" d="M10.88 11.15Q11.84 11.5 12.94 11.5Q14.04 11.5 15.01 11.14Q15.44 10.99 15.83 10.76Q16.43 10.43 16.91 9.98Q17.49 9.43 17.91 8.71Q18.09 8.41 18.22 8.09Q18.68 7.01 18.68 5.74Q18.68 4.42 18.2 3.32Q18.07 3.04 17.92 2.78Q17.53 2.11 17 1.59Q16.49 1.09 15.84 0.73Q15.42 0.5 14.97 0.34Q14.02 0 12.94 0Q11.84 0 10.88 0.35Q10.44 0.5 10.03 0.73Q9.42 1.07 8.92 1.54Q8.35 2.07 7.94 2.78Q7.76 3.07 7.63 3.37Q7.16 4.45 7.16 5.74Q7.16 7 7.62 8.07Q7.75 8.4 7.94 8.71Q8.36 9.43 8.95 9.98Q9.43 10.43 10.03 10.76Q10.44 10.99 10.88 11.15ZM35.64 11.15Q36.61 11.5 37.71 11.5Q38.81 11.5 39.78 11.14Q40.2 10.99 40.6 10.76Q41.19 10.43 41.68 9.98Q42.26 9.43 42.68 8.71Q42.85 8.41 42.99 8.09Q43.45 7.01 43.45 5.74Q43.45 4.42 42.96 3.32Q42.84 3.04 42.69 2.78Q42.3 2.11 41.77 1.59Q41.26 1.09 40.61 0.73Q40.19 0.5 39.74 0.34Q38.79 0 37.71 0Q36.61 0 35.64 0.35Q35.21 0.5 34.8 0.73Q34.19 1.07 33.69 1.54Q33.12 2.07 32.7 2.78Q32.53 3.07 32.4 3.37Q31.93 4.45 31.93 5.74Q31.93 7 32.38 8.07Q32.52 8.4 32.7 8.71Q33.13 9.43 33.72 9.98Q34.2 10.43 34.8 10.76Q35.21 10.99 35.64 11.15ZM27.32 3.24Q27.52 3.44 27.66 3.71L30.68 3.71Q30.41 2.65 29.79 1.88Q29.39 1.38 28.85 1Q28.78 0.95 28.7 0.9Q27.36 0.03 25.45 0.03Q23.93 0.03 22.71 0.64Q22.6 0.69 22.49 0.76Q21.88 1.1 21.39 1.57Q20.85 2.1 20.46 2.79Q20.4 2.9 20.35 3.01Q19.74 4.23 19.74 5.75Q19.74 7.29 20.36 8.51Q20.41 8.61 20.46 8.71Q20.82 9.35 21.32 9.85Q21.83 10.37 22.5 10.74Q22.62 10.8 22.74 10.86Q23.95 11.46 25.47 11.46Q26.87 11.46 27.99 10.92Q29.08 10.4 29.79 9.55Q29.82 9.53 29.84 9.5Q30.52 8.68 30.83 7.74Q30.85 7.66 30.87 7.59L30.87 5.05L24.92 5.05L24.92 7.07L28.39 7.07Q28.1 7.94 27.5 8.44Q27.44 8.49 27.38 8.54Q27.29 8.6 27.2 8.66Q26.56 9.05 25.68 9.05Q24.49 9.05 23.72 8.49Q23.53 8.35 23.36 8.18Q23.28 8.1 23.21 8.01Q22.52 7.16 22.52 5.75Q22.52 4.48 23.13 3.66Q23.22 3.54 23.32 3.42Q23.58 3.14 23.9 2.95Q24.55 2.55 25.45 2.55Q26.22 2.55 26.79 2.85Q27.09 3.01 27.32 3.24ZM6.32 9.27L2.73 9.27L2.73 0.16L0 0.16L0 11.39L6.32 11.39L6.32 9.27ZM14.48 8.61Q13.83 9 12.94 9Q12.01 9 11.33 8.58Q11.02 8.39 10.77 8.12Q10.67 8.01 10.59 7.89Q9.96 7.05 9.96 5.74Q9.96 4.38 10.62 3.54Q10.69 3.44 10.77 3.35Q11.02 3.09 11.31 2.9Q11.99 2.48 12.94 2.48Q13.84 2.48 14.5 2.87Q14.83 3.07 15.09 3.36Q15.19 3.47 15.27 3.58Q15.9 4.43 15.9 5.74Q15.9 7 15.3 7.85Q15.21 7.98 15.09 8.11Q14.82 8.41 14.48 8.61ZM39.25 8.61Q38.6 9 37.71 9Q36.77 9 36.1 8.58Q35.79 8.39 35.54 8.12Q35.44 8.01 35.36 7.89Q34.73 7.05 34.73 5.74Q34.73 4.38 35.39 3.54Q35.46 3.44 35.54 3.35Q35.79 3.09 36.08 2.9Q36.76 2.48 37.71 2.48Q38.61 2.48 39.27 2.87Q39.59 3.07 39.86 3.36Q39.96 3.47 40.04 3.58Q40.67 4.43 40.67 5.74Q40.67 7 40.07 7.85Q39.97 7.98 39.86 8.11Q39.59 8.41 39.25 8.61Z" fill="#00329B" fill-opacity="1.000000" fill-rule="evenodd"/>
</svg>
