<svg width="26.000000" height="26.000000" viewBox="0 0 26 26" fill="none" xmlns="http://www.w3.org/2000/svg" xmlns:xlink="http://www.w3.org/1999/xlink">
	<desc>
			Created with Pixso.
	</desc>
	<defs>
		<clipPath id="clip2_1117">
			<rect id="happy 1" width="26.000000" height="26.000000" fill="white" fill-opacity="0"/>
		</clipPath>
	</defs>
	<rect id="happy 1" width="26.000000" height="26.000000" fill="#FFFFFF" fill-opacity="0"/>
	<g clip-path="url(#clip2_1117)">
		<path id="Vector" d="M13.39 5.19C7.66 5.19 2.99 9.86 2.99 15.59C2.99 21.33 7.66 26 13.39 26C19.13 26 23.8 21.33 23.8 15.59C23.8 9.86 19.13 5.19 13.39 5.19ZM13.39 24.47C8.5 24.47 4.51 20.49 4.51 15.59C4.51 10.7 8.5 6.71 13.39 6.71C18.29 6.71 22.27 10.7 22.27 15.59C22.27 20.49 18.29 24.47 13.39 24.47Z" fill="#FFFFFF" fill-opacity="1.000000" fill-rule="nonzero"/>
		<path id="Vector" d="M17.94 17.53C17.62 17.25 17.14 17.29 16.86 17.61C15.99 18.62 14.73 19.21 13.39 19.21C12.06 19.21 10.79 18.62 9.92 17.61C9.65 17.29 9.17 17.25 8.85 17.53C8.53 17.8 8.49 18.28 8.77 18.6C9.93 19.95 11.61 20.73 13.39 20.73C15.17 20.73 16.86 19.95 18.02 18.6C18.29 18.28 18.26 17.8 17.94 17.53Z" fill="#FFFFFF" fill-opacity="1.000000" fill-rule="nonzero"/>
		<path id="Vector" d="M9.16 14.39C9.59 14.39 9.93 14.05 9.93 13.63C9.93 13.39 10.12 13.19 10.37 13.19C10.61 13.19 10.81 13.39 10.81 13.63C10.81 14.05 11.15 14.39 11.57 14.39C11.99 14.39 12.34 14.05 12.34 13.63C12.34 12.55 11.45 11.67 10.37 11.67C9.28 11.67 8.4 12.55 8.4 13.63C8.4 14.05 8.74 14.39 9.16 14.39Z" fill="#FFFFFF" fill-opacity="1.000000" fill-rule="nonzero"/>
		<path id="Vector" d="M16.42 11.67C15.33 11.67 14.45 12.55 14.45 13.63C14.45 14.05 14.79 14.39 15.21 14.39C15.63 14.39 15.97 14.05 15.97 13.63C15.97 13.39 16.17 13.19 16.42 13.19C16.66 13.19 16.86 13.39 16.86 13.63C16.86 14.05 17.2 14.39 17.62 14.39C18.04 14.39 18.38 14.05 18.38 13.63C18.38 12.55 17.5 11.67 16.42 11.67Z" fill="#FFFFFF" fill-opacity="1.000000" fill-rule="nonzero"/>
		<path id="Vector" d="M19.67 4.27L20.78 4.27C21.2 4.27 21.54 3.93 21.54 3.51C21.54 3.09 21.2 2.75 20.78 2.75L19.67 2.75C19.25 2.75 18.91 3.09 18.91 3.51C18.91 3.93 19.25 4.27 19.67 4.27Z" fill="#FFFFFF" fill-opacity="1.000000" fill-rule="nonzero"/>
		<path id="Vector" d="M22.45 7.03C22.87 7.03 23.21 6.69 23.21 6.27L23.21 5.16C23.21 4.74 22.87 4.39 22.45 4.39C22.03 4.39 21.69 4.74 21.69 5.16L21.69 6.27C21.69 6.69 22.03 7.03 22.45 7.03Z" fill="#FFFFFF" fill-opacity="1.000000" fill-rule="nonzero"/>
		<path id="Vector" d="M25.23 2.75L24.12 2.75C23.7 2.75 23.36 3.09 23.36 3.51C23.36 3.93 23.7 4.27 24.12 4.27L25.23 4.27C25.65 4.27 26 3.93 26 3.51C26 3.09 25.65 2.75 25.23 2.75Z" fill="#FFFFFF" fill-opacity="1.000000" fill-rule="nonzero"/>
		<path id="Vector" d="M22.45 2.63C22.87 2.63 23.21 2.29 23.21 1.87L23.21 0.76C23.21 0.34 22.87 0 22.45 0C22.03 0 21.69 0.34 21.69 0.76L21.69 1.87C21.69 2.29 22.03 2.63 22.45 2.63Z" fill="#FFFFFF" fill-opacity="1.000000" fill-rule="nonzero"/>
		<path id="Vector" d="M1.64 3.77L0.76 3.77C0.34 3.77 0 4.11 0 4.53C0 4.95 0.34 5.29 0.76 5.29L1.64 5.29C2.06 5.29 2.41 4.95 2.41 4.53C2.41 4.11 2.06 3.77 1.64 3.77Z" fill="#FFFFFF" fill-opacity="1.000000" fill-rule="nonzero"/>
		<path id="Vector" d="M3.99 6.98L3.99 6.09C3.99 5.67 3.65 5.33 3.23 5.33C2.81 5.33 2.47 5.67 2.47 6.09L2.47 6.98C2.47 7.4 2.81 7.74 3.23 7.74C3.65 7.74 3.99 7.4 3.99 6.98Z" fill="#FFFFFF" fill-opacity="1.000000" fill-rule="nonzero"/>
		<path id="Vector" d="M4.82 5.29L5.71 5.29C6.13 5.29 6.47 4.95 6.47 4.53C6.47 4.11 6.13 3.77 5.71 3.77L4.82 3.77C4.4 3.77 4.06 4.11 4.06 4.53C4.06 4.95 4.4 5.29 4.82 5.29Z" fill="#FFFFFF" fill-opacity="1.000000" fill-rule="nonzero"/>
		<path id="Vector" d="M3.23 3.72C3.65 3.72 3.99 3.38 3.99 2.96L3.99 2.07C3.99 1.65 3.65 1.31 3.23 1.31C2.81 1.31 2.47 1.65 2.47 2.07L2.47 2.96C2.47 3.38 2.81 3.72 3.23 3.72Z" fill="#FFFFFF" fill-opacity="1.000000" fill-rule="nonzero"/>
	</g>
</svg>
