<svg width="13.000000" height="13.000000" viewBox="0 0 13 13" fill="none" xmlns="http://www.w3.org/2000/svg" xmlns:xlink="http://www.w3.org/1999/xlink">
	<desc>
			Created with Pixso.
	</desc>
	<defs>
		<clipPath id="clip2_1232">
			<rect id="instagram 1" width="13.000000" height="13.000000" fill="white" fill-opacity="0"/>
		</clipPath>
	</defs>
	<rect id="instagram 1" width="13.000000" height="13.000000" fill="#FFFFFF" fill-opacity="0"/>
	<g clip-path="url(#clip2_1232)">
		<path id="Vector" d="M9.48 0L3.51 0C1.57 0 0 1.57 0 3.51L0 9.48C0 11.42 1.57 13 3.51 13L9.48 13C11.42 13 13 11.42 13 9.48L13 3.51C13 1.57 11.42 0 9.48 0L9.48 0ZM12.23 9.48C12.23 11 11 12.23 9.48 12.23L3.51 12.23C1.99 12.23 0.76 11 0.76 9.48L0.76 3.51C0.76 1.99 1.99 0.76 3.51 0.76L9.48 0.76C11 0.76 12.23 1.99 12.23 3.51L12.23 9.48Z" fill="#000000" fill-opacity="1.000000" fill-rule="nonzero"/>
		<path id="Vector" d="M6.5 2.94C4.53 2.94 2.94 4.53 2.94 6.5C2.94 8.45 4.53 10.05 6.5 10.05C8.45 10.05 10.05 8.45 10.05 6.5C10.05 4.53 8.45 2.94 6.5 2.94ZM6.5 9.29C4.96 9.29 3.7 8.03 3.7 6.5C3.7 4.96 4.96 3.7 6.5 3.7C8.03 3.7 9.29 4.96 9.29 6.5C9.29 8.03 8.03 9.29 6.5 9.29Z" fill="#000000" fill-opacity="1.000000" fill-rule="nonzero"/>
		<path id="Vector" d="M10.13 1.68C9.56 1.68 9.08 2.15 9.08 2.73C9.08 3.31 9.56 3.78 10.13 3.78C10.71 3.78 11.19 3.31 11.19 2.73C11.19 2.15 10.71 1.68 10.13 1.68ZM10.13 3.02C9.98 3.02 9.85 2.89 9.85 2.73C9.85 2.57 9.98 2.44 10.13 2.44C10.29 2.44 10.42 2.57 10.42 2.73C10.42 2.89 10.29 3.02 10.13 3.02Z" fill="#000000" fill-opacity="1.000000" fill-rule="nonzero"/>
	</g>
</svg>
