<svg width="11.000000" height="11.000000" viewBox="0 0 11 11" fill="none" xmlns="http://www.w3.org/2000/svg" xmlns:xlink="http://www.w3.org/1999/xlink">
	<desc>
			Created with Pixso.
	</desc>
	<defs>
		<clipPath id="clip2_1246">
			<rect id="linkedin 1" width="11.000000" height="11.000000" fill="white" fill-opacity="0"/>
		</clipPath>
	</defs>
	<rect id="linkedin 1" width="11.000000" height="11.000000" fill="#FFFFFF" fill-opacity="0"/>
	<g clip-path="url(#clip2_1246)">
		<path id="Vector" d="M10.99 10.99L10.99 10.99L10.99 10.99L10.99 6.96C10.99 4.99 10.57 3.47 8.26 3.47C7.15 3.47 6.41 4.07 6.11 4.65L6.07 4.65L6.07 3.65L3.89 3.65L3.89 10.99L6.16 10.99L6.16 7.36C6.16 6.4 6.35 5.47 7.53 5.47C8.7 5.47 8.72 6.57 8.72 7.42L8.72 10.99L10.99 10.99Z" fill="#000000" fill-opacity="1.000000" fill-rule="nonzero"/>
		<path id="Vector" d="M0.18 3.65L2.46 3.65L2.46 11L0.18 11L0.18 3.65Z" fill="#000000" fill-opacity="1.000000" fill-rule="nonzero"/>
		<path id="Vector" d="M1.32 0C0.59 0 0 0.59 0 1.32C0 2.05 0.59 2.65 1.32 2.65C2.05 2.65 2.64 2.05 2.64 1.32C2.64 0.59 2.04 0 1.32 0L1.32 0Z" fill="#000000" fill-opacity="1.000000" fill-rule="nonzero"/>
	</g>
</svg>
