<svg width="18.062500" height="32.937500" viewBox="0 0 18.0625 32.9375" fill="none" xmlns="http://www.w3.org/2000/svg" xmlns:xlink="http://www.w3.org/1999/xlink">
	<desc>
			Created with Pixso.
	</desc>
	<defs/>
	<path id="Vector" d="M15.93 0L2.12 0C1.56 0 1.02 0.22 0.62 0.62C0.22 1.02 0 1.56 0 2.12L0 30.81C0 31.37 0.22 31.91 0.62 32.31C1.02 32.71 1.56 32.93 2.12 32.93L15.93 32.93C16.5 32.93 17.04 32.71 17.43 32.31C17.83 31.91 18.06 31.37 18.06 30.81L18.06 2.12C18.06 1.56 17.83 1.02 17.43 0.62C17.04 0.22 16.5 0 15.93 0ZM11.51 1.06L11.21 2.12L6.79 2.12L6.52 1.06L11.51 1.06ZM17 30.81C16.99 31.09 16.88 31.36 16.68 31.56C16.48 31.76 16.21 31.87 15.93 31.87L2.12 31.87C1.84 31.87 1.57 31.76 1.37 31.56C1.17 31.36 1.06 31.09 1.06 30.81L1.06 2.12C1.06 1.84 1.17 1.57 1.37 1.37C1.57 1.17 1.84 1.06 2.12 1.06L5.42 1.06L5.85 2.78C5.88 2.9 5.95 3 6.04 3.07C6.14 3.14 6.25 3.18 6.37 3.18L11.62 3.18C11.73 3.18 11.84 3.14 11.94 3.07C12.03 3 12.1 2.91 12.13 2.8L12.62 1.06L15.93 1.06C16.21 1.06 16.48 1.17 16.68 1.37C16.88 1.57 16.99 1.84 17 2.12L17 30.81Z" fill="#BB3800" fill-opacity="1.000000" fill-rule="nonzero"/>
	<path id="Vector" d="M6.37 29.75L2.65 29.75C2.51 29.75 2.38 29.8 2.28 29.9C2.18 30 2.12 30.14 2.12 30.28C2.12 30.42 2.18 30.55 2.28 30.65C2.38 30.75 2.51 30.81 2.65 30.81L6.37 30.81C6.51 30.81 6.65 30.75 6.75 30.65C6.85 30.55 6.9 30.42 6.9 30.28C6.9 30.14 6.85 30 6.75 29.9C6.65 29.8 6.51 29.75 6.37 29.75Z" fill="#BB3800" fill-opacity="1.000000" fill-rule="nonzero"/>
	<path id="Vector" d="M8.5 29.75L7.96 29.75C7.82 29.75 7.69 29.8 7.59 29.9C7.49 30 7.43 30.14 7.43 30.28C7.43 30.42 7.49 30.55 7.59 30.65C7.69 30.75 7.82 30.81 7.96 30.81L8.5 30.81C8.64 30.81 8.77 30.75 8.87 30.65C8.97 30.55 9.03 30.42 9.03 30.28C9.03 30.14 8.97 30 8.87 29.9C8.77 29.8 8.64 29.75 8.5 29.75Z" fill="#BB3800" fill-opacity="1.000000" fill-rule="nonzero"/>
	<path id="Vector" d="M10.89 13.35C10.83 13.32 10.77 13.29 10.7 13.28C10.63 13.27 10.56 13.28 10.49 13.29C10.42 13.31 10.36 13.34 10.3 13.38C10.25 13.42 10.2 13.47 10.16 13.53L6.98 18.85C6.9 18.97 6.88 19.11 6.92 19.25C6.95 19.39 7.04 19.5 7.16 19.58C7.28 19.65 7.42 19.67 7.56 19.64C7.7 19.6 7.82 19.51 7.89 19.39L11.08 14.08C11.11 14.02 11.14 13.95 11.15 13.89C11.16 13.82 11.15 13.75 11.14 13.68C11.12 13.61 11.09 13.55 11.05 13.49C11.01 13.44 10.95 13.39 10.89 13.35Z" fill="#BB3800" fill-opacity="1.000000" fill-rule="nonzero"/>
	<path id="Vector" d="M12.63 13.48C12.59 13.42 12.53 13.38 12.47 13.34C12.41 13.31 12.34 13.29 12.27 13.28C12.13 13.26 11.99 13.3 11.88 13.39C11.77 13.48 11.7 13.61 11.69 13.75C11.67 13.89 11.71 14.03 11.8 14.14L13.66 16.46L11.8 18.79C11.71 18.9 11.67 19.04 11.69 19.18C11.7 19.32 11.77 19.45 11.88 19.53C11.99 19.62 12.13 19.66 12.27 19.65C12.41 19.63 12.54 19.56 12.63 19.45L14.75 16.8C14.83 16.7 14.87 16.58 14.87 16.46C14.87 16.34 14.83 16.23 14.75 16.13L12.63 13.48Z" fill="#BB3800" fill-opacity="1.000000" fill-rule="nonzero"/>
	<path id="Vector" d="M5.42 19.45C5.51 19.56 5.64 19.63 5.78 19.65C5.92 19.66 6.06 19.62 6.17 19.53C6.28 19.45 6.35 19.32 6.37 19.18C6.38 19.04 6.34 18.9 6.25 18.79L4.39 16.46L6.25 14.14C6.3 14.09 6.33 14.02 6.35 13.96C6.37 13.89 6.37 13.82 6.37 13.75C6.36 13.68 6.34 13.61 6.3 13.55C6.27 13.49 6.23 13.44 6.17 13.39C6.12 13.35 6.05 13.32 5.99 13.3C5.92 13.28 5.85 13.27 5.78 13.28C5.71 13.29 5.64 13.31 5.58 13.34C5.52 13.38 5.47 13.42 5.42 13.48L3.3 16.13C3.22 16.23 3.18 16.34 3.18 16.46C3.18 16.58 3.22 16.7 3.3 16.8L5.42 19.45Z" fill="#BB3800" fill-opacity="1.000000" fill-rule="nonzero"/>
</svg>
