<svg width="13.000000" height="10.562500" viewBox="0 0 13 10.5625" fill="none" xmlns="http://www.w3.org/2000/svg" xmlns:xlink="http://www.w3.org/1999/xlink">
	<desc>
			Created with Pixso.
	</desc>
	<defs/>
	<path id="Vector" d="M13 1.25C12.51 1.46 12 1.6 11.46 1.67C12.01 1.34 12.43 0.82 12.63 0.19C12.12 0.5 11.55 0.72 10.94 0.84C10.45 0.32 9.76 0 9 0C7.52 0 6.33 1.19 6.33 2.66C6.33 2.87 6.35 3.08 6.39 3.27C4.18 3.16 2.22 2.1 0.9 0.48C0.67 0.88 0.54 1.34 0.54 1.83C0.54 2.75 1.01 3.57 1.72 4.04C1.29 4.03 0.87 3.91 0.52 3.71C0.52 3.72 0.52 3.73 0.52 3.74C0.52 5.04 1.44 6.11 2.65 6.36C2.43 6.42 2.2 6.45 1.95 6.45C1.78 6.45 1.61 6.44 1.45 6.4C1.79 7.46 2.77 8.24 3.94 8.26C3.03 8.97 1.88 9.4 0.63 9.4C0.41 9.4 0.2 9.39 0 9.36C1.18 10.12 2.57 10.56 4.08 10.56C8.99 10.56 11.67 6.5 11.67 2.97C11.67 2.86 11.66 2.74 11.66 2.63C12.19 2.25 12.63 1.79 13 1.25Z" fill="#000000" fill-opacity="1.000000" fill-rule="nonzero"/>
</svg>
